<svg width="37" height="43" viewBox="0 0 37 43" fill="none" xmlns="http://www.w3.org/2000/svg">
<g clip-path="url(#clip0_134_5324)">
<path d="M12.1797 30.3713C13.418 31.911 14.6792 33.8469 15.3392 35.0162C16.1429 36.5364 16.4762 37.5628 17.0741 39.4013C17.4237 40.4082 17.757 40.7135 18.4562 40.7135C19.2207 40.7135 19.5703 40.2003 19.8382 39.4013C20.3969 37.6765 20.8282 36.3642 21.5111 35.1137C24.1445 30.1764 28.4378 26.6684 30.8556 21.8611C30.8556 21.8611 32.4467 18.9247 32.4467 14.8125C32.4467 10.9797 30.8784 8.31616 30.8784 8.31616L12.1895 30.4038L12.1797 30.3713Z" fill="#34A853"/>
<path d="M5.84123 21.3412C7.34746 24.7518 10.2194 27.7402 12.1798 30.3712L22.5698 18.1255C22.5698 18.1255 21.1028 20.0355 18.453 20.0355C15.4994 20.0355 13.0946 17.6968 13.0946 14.7409C13.0946 12.7076 14.3133 11.2979 14.3133 11.2979C6.66786 12.4282 7.09261 14.2699 5.81836 21.3347L5.84123 21.3412Z" fill="#FBBC04"/>
<path d="M22.7004 1.45264C26.1638 2.56027 29.1043 4.89571 30.8687 8.3063L22.5697 18.1483C22.5697 18.1483 23.7884 16.7321 23.7884 14.7052C23.7884 11.6877 21.2269 9.41069 18.4627 9.41069C15.8391 9.41069 14.3459 11.2979 14.3459 11.2979C14.9831 9.85569 21.5667 1.94311 22.7102 1.45588L22.7004 1.45264Z" fill="#4285F4"/>
<path d="M7.73608 5.78246C9.80102 3.33983 13.4212 0.812744 18.4201 0.812744C20.8347 0.812744 22.6676 1.44939 22.6676 1.44939L14.336 11.2914C13.774 10.9883 8.29152 6.74393 7.73608 5.76947V5.78246Z" fill="#1A73E8"/>
<path d="M5.84122 21.3413C5.84122 21.3413 4.47876 18.6518 4.47876 14.7799C4.47876 11.1095 5.92291 7.89378 7.74606 5.81494L14.346 11.3369L5.85102 21.3413H5.84122Z" fill="#EA4335"/>
</g>
<defs>
<clipPath id="clip0_134_5324">
<rect width="37" height="42" fill="white" transform="translate(0 0.812744)"/>
</clipPath>
</defs>
</svg>
