<?xml version="1.0" encoding="UTF-8"?>
<svg id="Layer_1" xmlns="http://www.w3.org/2000/svg" xmlns:xlink="http://www.w3.org/1999/xlink" version="1.1" viewBox="0 0 76.67 23">
  <!-- Generator: Adobe Illustrator 30.2.0, SVG Export Plug-In . SVG Version: 2.1.1 Build 105)  -->
  <defs>
    <style>
      .st0 {
        fill: none;
      }

      .st1 {
        fill: #ff1f00;
      }

      .st2 {
        fill: #050505;
      }

      .st3 {
        fill: #d0cfde;
      }

      .st4 {
        isolation: isolate;
        opacity: .39;
      }

      .st5 {
        fill: #a0919a;
      }

      .st6 {
        fill: url(#linear-gradient2);
      }

      .st7 {
        fill: url(#linear-gradient1);
      }

      .st8 {
        fill: url(#linear-gradient9);
      }

      .st9 {
        fill: url(#linear-gradient3);
      }

      .st10 {
        fill: url(#linear-gradient6);
      }

      .st11 {
        fill: url(#linear-gradient8);
      }

      .st12 {
        fill: url(#linear-gradient7);
      }

      .st13 {
        fill: url(#linear-gradient5);
      }

      .st14 {
        fill: url(#linear-gradient4);
      }

      .st15 {
        fill: #a5460b;
      }

      .st16 {
        fill: #b9b0ae;
      }

      .st17 {
        fill: #e6e6e6;
      }

      .st18 {
        fill: url(#linear-gradient28);
      }

      .st19 {
        fill: url(#linear-gradient29);
      }

      .st20 {
        fill: url(#linear-gradient18);
      }

      .st21 {
        fill: url(#linear-gradient13);
      }

      .st22 {
        fill: url(#linear-gradient12);
      }

      .st23 {
        fill: url(#linear-gradient15);
      }

      .st24 {
        fill: url(#linear-gradient16);
      }

      .st25 {
        fill: url(#linear-gradient11);
      }

      .st26 {
        fill: url(#linear-gradient10);
      }

      .st27 {
        fill: url(#linear-gradient17);
      }

      .st28 {
        fill: url(#linear-gradient14);
      }

      .st29 {
        fill: url(#linear-gradient19);
      }

      .st30 {
        fill: url(#linear-gradient23);
      }

      .st31 {
        fill: url(#linear-gradient22);
      }

      .st32 {
        fill: url(#linear-gradient24);
      }

      .st33 {
        fill: url(#linear-gradient25);
      }

      .st34 {
        fill: url(#linear-gradient21);
      }

      .st35 {
        fill: url(#linear-gradient20);
      }

      .st36 {
        fill: url(#linear-gradient27);
      }

      .st37 {
        fill: url(#linear-gradient26);
      }

      .st38 {
        fill: #7d6e6a;
      }

      .st39 {
        fill: #4f4639;
      }

      .st40 {
        fill: #e1beb8;
      }

      .st41 {
        fill: #7c797a;
      }

      .st42 {
        fill: #806863;
      }

      .st43 {
        fill: #301d14;
      }

      .st44 {
        fill: #564e4c;
      }

      .st45 {
        fill: #dfd0ca;
      }

      .st46 {
        fill: #0b0809;
      }

      .st47 {
        fill: url(#radial-gradient);
      }

      .st48 {
        fill: #ff1b08;
      }

      .st49 {
        fill: url(#linear-gradient);
      }

      .st50 {
        fill: #343e36;
      }

      .st51 {
        fill: #d8d4d1;
      }

      .st52 {
        fill: #181614;
      }

      .st53 {
        fill: #ebe5e3;
      }

      .st54 {
        fill: #732313;
      }

      .st55 {
        fill: #020202;
      }

      .st56 {
        fill: #beb7b5;
      }

      .st57 {
        fill: #635b50;
      }

      .st58 {
        fill: #8c8074;
      }

      .st59 {
        fill: #c8c9c6;
      }

      .st60 {
        fill: #c3c2b7;
      }

      .st61 {
        fill: #8f241f;
      }

      .st62 {
        fill: #fff;
      }

      .st63 {
        fill: #9c97bf;
      }

      .st64 {
        fill: #be0003;
      }

      .st65 {
        fill: #38242d;
      }

      .st66 {
        fill: #a7917d;
      }

      .st67 {
        fill: #1b1318;
      }

      .st68 {
        fill: #785a52;
      }

      .st69 {
        fill: #a19897;
      }

      .st70 {
        fill: #fffffd;
      }

      .st71 {
        fill: #c7c2ba;
      }

      .st72 {
        fill: #9c7965;
      }

      .st73 {
        fill: #7e7d80;
      }

      .st74 {
        fill: #0c0c0c;
      }

      .st75 {
        fill: #df0200;
      }

      .st76 {
        fill: #dbdad5;
      }

      .st77 {
        fill: #ee1500;
      }

      .st78 {
        fill: url(#radial-gradient1);
      }

      .st79 {
        fill: url(#radial-gradient6);
      }

      .st80 {
        fill: url(#radial-gradient3);
      }

      .st81 {
        fill: url(#radial-gradient2);
      }

      .st82 {
        fill: url(#radial-gradient5);
      }

      .st83 {
        fill: url(#radial-gradient4);
      }

      .st84 {
        fill: url(#radial-gradient7);
      }

      .st85 {
        fill: #290000;
      }

      .st86 {
        fill: #8a6654;
      }

      .st87 {
        fill: #c1885b;
      }

      .st88 {
        fill: #91736e;
      }

      .st89 {
        fill: #3e494c;
      }

      .st90 {
        fill: #f50702;
      }

      .st91 {
        fill: #0f0f0f;
      }

      .st92 {
        clip-path: url(#clippath);
      }

      .st93 {
        fill: #988b84;
      }

      .st94 {
        fill: #250c0e;
      }

      .st95 {
        fill: #f5be95;
      }
    </style>
    <clipPath id="clippath">
      <rect class="st0" x="-3.11" y=".81" width="163" height="22"/>
    </clipPath>
    <linearGradient id="linear-gradient" x1="42.74" y1="15.43" x2="43.7" y2="15.43" gradientTransform="translate(0 23.28) scale(1 -1)" gradientUnits="userSpaceOnUse">
      <stop offset=".08" stop-color="#c5b9af"/>
      <stop offset=".23" stop-color="#c1b6ac"/>
      <stop offset=".38" stop-color="#b6aca3"/>
      <stop offset=".46" stop-color="#aca49b"/>
    </linearGradient>
    <linearGradient id="linear-gradient1" x1="43.2" y1="16.95" x2="70.76" y2="16.95" gradientTransform="translate(0 23.28) scale(1 -1)" gradientUnits="userSpaceOnUse">
      <stop offset=".08" stop-color="#f60d03"/>
      <stop offset=".36" stop-color="#f51106"/>
      <stop offset=".62" stop-color="#f21c0e"/>
      <stop offset=".87" stop-color="#ec2f1d"/>
      <stop offset="1" stop-color="#e93b26"/>
    </linearGradient>
    <linearGradient id="linear-gradient2" x1="45.51" y1="20.46" x2="70.73" y2="20.46" gradientTransform="translate(0 23.28) scale(1 -1)" gradientUnits="userSpaceOnUse">
      <stop offset=".08" stop-color="#f0450f" stop-opacity=".7"/>
      <stop offset=".4" stop-color="#ee4315" stop-opacity=".83"/>
      <stop offset=".81" stop-color="#e93c25" stop-opacity=".99"/>
      <stop offset=".84" stop-color="#e93b26"/>
    </linearGradient>
    <linearGradient id="linear-gradient3" x1="43.42" y1="13.86" x2="43.81" y2="6.93" gradientTransform="translate(0 23.28) scale(1 -1)" gradientUnits="userSpaceOnUse">
      <stop offset=".09" stop-color="#26252c"/>
      <stop offset=".26" stop-color="#342f33"/>
      <stop offset=".8" stop-color="#5d4e47"/>
    </linearGradient>
    <linearGradient id="linear-gradient4" x1="42.48" y1="8.81" x2="42.73" y2="4.37" xlink:href="#linear-gradient3"/>
    <linearGradient id="linear-gradient5" x1="41.04" y1="5.16" x2="43.77" y2="5.16" xlink:href="#linear-gradient3"/>
    <radialGradient id="radial-gradient" cx="-268.73" cy="228.27" fx="-268.73" fy="228.27" r="1" gradientTransform="translate(990.46 823.73) scale(3.51 -3.53)" gradientUnits="userSpaceOnUse">
      <stop offset=".78" stop-color="#423f3c"/>
      <stop offset=".84" stop-color="#2b2825"/>
      <stop offset=".88" stop-color="#1e1b18"/>
      <stop offset=".93" stop-color="#1e1b18"/>
      <stop offset=".94" stop-color="#1e1b18"/>
      <stop offset=".96" stop-color="#221f1c"/>
      <stop offset=".98" stop-color="#2f2c29"/>
      <stop offset="1" stop-color="#423f3c"/>
    </radialGradient>
    <linearGradient id="linear-gradient6" x1="48.19" y1="8.21" x2="48.19" y2="3.49" gradientTransform="translate(0 23.28) scale(1 -1)" gradientUnits="userSpaceOnUse">
      <stop offset=".15" stop-color="#656254"/>
      <stop offset=".5" stop-color="#67645f"/>
      <stop offset=".74" stop-color="#a3a19e"/>
      <stop offset="1" stop-color="#eaeaea"/>
    </linearGradient>
    <radialGradient id="radial-gradient1" cx="-190.39" cy="141.2" fx="-190.39" fy="141.2" r="1" gradientTransform="translate(369.9 257.9) scale(1.69 -1.7)" gradientUnits="userSpaceOnUse">
      <stop offset=".58" stop-color="#958f87"/>
      <stop offset=".61" stop-color="#b7b0a8"/>
      <stop offset=".68" stop-color="#fff7f0"/>
      <stop offset=".73" stop-color="#fff7f0"/>
      <stop offset=".89" stop-color="#c0b9b2"/>
      <stop offset="1" stop-color="#958f87"/>
    </radialGradient>
    <linearGradient id="linear-gradient7" x1="48.19" y1="6.74" x2="48.19" y2="4.83" gradientTransform="translate(0 23.28) scale(1 -1)" gradientUnits="userSpaceOnUse">
      <stop offset=".06" stop-color="#53534f"/>
      <stop offset=".34" stop-color="#797872"/>
      <stop offset=".6" stop-color="#94928c"/>
      <stop offset=".83" stop-color="#a5a29c"/>
      <stop offset="1" stop-color="#aba8a1"/>
    </linearGradient>
    <radialGradient id="radial-gradient2" cx="-242.62" cy="199.25" fx="-242.62" fy="199.25" r="1" gradientTransform="translate(689.13 536.79) scale(2.58 -2.6)" gradientUnits="userSpaceOnUse">
      <stop offset=".67" stop-color="#1e1b18"/>
      <stop offset=".72" stop-color="#27221f"/>
      <stop offset=".79" stop-color="#3c312e"/>
      <stop offset=".89" stop-color="#3c312e"/>
      <stop offset=".92" stop-color="#4a3e38"/>
      <stop offset=".97" stop-color="#6e5e51"/>
      <stop offset=".98" stop-color="#766657"/>
    </radialGradient>
    <linearGradient id="linear-gradient8" x1="62.86" y1="6.35" x2="62.86" y2="2.87" xlink:href="#linear-gradient6"/>
    <radialGradient id="radial-gradient3" cx="-136.4" cy="81.19" fx="-136.4" fy="81.19" r="1" gradientTransform="translate(232.7 120.63) scale(1.25 -1.25)" gradientUnits="userSpaceOnUse">
      <stop offset=".81" stop-color="#958f87"/>
      <stop offset="1" stop-color="#958f87"/>
    </radialGradient>
    <linearGradient id="linear-gradient9" x1="62.87" y1="5.5" x2="62.87" y2="3.68" xlink:href="#linear-gradient7"/>
    <linearGradient id="linear-gradient10" x1="58.05" y1="19.45" x2="68.61" y2="19.45" gradientTransform="translate(0 23.28) scale(1 -1)" gradientUnits="userSpaceOnUse">
      <stop offset=".08" stop-color="#685b54"/>
      <stop offset=".19" stop-color="#6d6059" stop-opacity=".88"/>
      <stop offset=".32" stop-color="#7c6f68" stop-opacity=".73"/>
      <stop offset=".46" stop-color="#948881" stop-opacity=".57"/>
      <stop offset=".62" stop-color="#b5aba4" stop-opacity=".39"/>
      <stop offset=".77" stop-color="#e0d7d0" stop-opacity=".22"/>
      <stop offset=".88" stop-color="#fff7f0" stop-opacity=".1"/>
    </linearGradient>
    <linearGradient id="linear-gradient11" x1="71.93" y1="4.33" x2="73.69" y2="4.33" gradientTransform="translate(0 23.28) scale(1 -1)" gradientUnits="userSpaceOnUse">
      <stop offset=".15" stop-color="#170a13"/>
      <stop offset=".21" stop-color="#1f121b"/>
      <stop offset=".31" stop-color="#36282f"/>
      <stop offset=".43" stop-color="#5b4b51"/>
      <stop offset=".57" stop-color="#8f7c80"/>
      <stop offset=".66" stop-color="#b6a1a4"/>
    </linearGradient>
    <radialGradient id="radial-gradient4" cx="-54.73" cy="-811.93" fx="-54.73" fy="-811.93" r="1" gradientTransform="translate(97.07 -193.95) scale(.89 -.26)" gradientUnits="userSpaceOnUse">
      <stop offset=".08" stop-color="#f2e9e6"/>
      <stop offset=".17" stop-color="#f2e4e1" stop-opacity=".89"/>
      <stop offset=".28" stop-color="#f3d7d2" stop-opacity=".75"/>
      <stop offset=".4" stop-color="#f4c0b9" stop-opacity=".59"/>
      <stop offset=".52" stop-color="#f6a096" stop-opacity=".43"/>
      <stop offset=".66" stop-color="#f9776a" stop-opacity=".26"/>
      <stop offset=".79" stop-color="#fb4634" stop-opacity=".09"/>
      <stop offset=".86" stop-color="#fd2b16" stop-opacity="0"/>
    </radialGradient>
    <linearGradient id="linear-gradient12" x1="40.08" y1="5.94" x2="40.08" y2="4.68" gradientTransform="translate(0 23.28) scale(1 -1)" gradientUnits="userSpaceOnUse">
      <stop offset=".16" stop-color="#30353c"/>
      <stop offset=".3" stop-color="#414449"/>
      <stop offset=".57" stop-color="#6f6c6b"/>
      <stop offset=".61" stop-color="#767271"/>
      <stop offset=".89" stop-color="#797272"/>
      <stop offset=".94" stop-color="#7b7272"/>
    </linearGradient>
    <linearGradient id="linear-gradient13" x1="36.46" y1="4.84" x2="36.46" y2="6.57" gradientTransform="translate(0 23.28) scale(1 -1)" gradientUnits="userSpaceOnUse">
      <stop offset=".23" stop-color="#12030a"/>
      <stop offset=".41" stop-color="#1d1418"/>
      <stop offset=".61" stop-color="#2c2c2c"/>
      <stop offset=".68" stop-color="#2f2f2f"/>
      <stop offset=".73" stop-color="#393937"/>
      <stop offset=".78" stop-color="#4a4946"/>
      <stop offset=".82" stop-color="#61605a"/>
      <stop offset=".86" stop-color="#7f7d75"/>
      <stop offset=".88" stop-color="#929085"/>
    </linearGradient>
    <linearGradient id="linear-gradient14" x1="34.51" y1="4.88" x2="37.88" y2="4.88" gradientTransform="translate(0 23.28) scale(1 -1)" gradientUnits="userSpaceOnUse">
      <stop offset=".16" stop-color="#191919"/>
      <stop offset=".63" stop-color="#444"/>
      <stop offset=".71" stop-color="#4a4a4a"/>
      <stop offset=".82" stop-color="#5a5a5a"/>
      <stop offset=".94" stop-color="#747474"/>
      <stop offset=".98" stop-color="#7c7c7c"/>
    </linearGradient>
    <linearGradient id="linear-gradient15" x1="34.06" y1="4.73" x2="37.55" y2="4.73" gradientTransform="translate(0 23.28) scale(1 -1)" gradientUnits="userSpaceOnUse">
      <stop offset=".26" stop-color="#12030a"/>
      <stop offset=".95" stop-color="#2c2c2c"/>
    </linearGradient>
    <linearGradient id="linear-gradient16" x1="36.54" y1="19.27" x2="36.54" y2="13.3" gradientTransform="translate(0 23.28) scale(1 -1)" gradientUnits="userSpaceOnUse">
      <stop offset=".25" stop-color="#cfbfb2"/>
      <stop offset=".56" stop-color="#d1c3b8"/>
      <stop offset=".84" stop-color="#d4cac2"/>
    </linearGradient>
    <linearGradient id="linear-gradient17" x1="2.67" y1="17.11" x2="38.19" y2="17.11" gradientTransform="translate(0 23.28) scale(1 -1)" gradientUnits="userSpaceOnUse">
      <stop offset=".08" stop-color="#f60d03"/>
      <stop offset=".29" stop-color="#f41307"/>
      <stop offset=".56" stop-color="#f02313"/>
      <stop offset=".84" stop-color="#e93b26"/>
    </linearGradient>
    <linearGradient id="linear-gradient18" x1="3.76" y1="20.8" x2="38.19" y2="20.8" gradientTransform="translate(0 23.28) scale(1 -1)" gradientUnits="userSpaceOnUse">
      <stop offset=".08" stop-color="#ea1406" stop-opacity="0"/>
      <stop offset=".51" stop-color="#ea1406" stop-opacity="0"/>
      <stop offset=".94" stop-color="#ea1406"/>
    </linearGradient>
    <linearGradient id="linear-gradient19" x1="12.63" y1="19.81" x2="12.63" y2="13.4" gradientTransform="translate(0 23.28) scale(1 -1)" gradientUnits="userSpaceOnUse">
      <stop offset=".26" stop-color="#d5170f"/>
      <stop offset=".86" stop-color="#ea483a"/>
    </linearGradient>
    <linearGradient id="linear-gradient20" x1="11.05" y1="13.71" x2="11.05" y2="20.25" xlink:href="#linear-gradient19"/>
    <linearGradient id="linear-gradient21" x1="24.35" y1="19.76" x2="24.35" y2="13.04" xlink:href="#linear-gradient19"/>
    <linearGradient id="linear-gradient22" x1="24" y1="13.36" x2="24" y2="20.22" xlink:href="#linear-gradient19"/>
    <linearGradient id="linear-gradient23" x1="18.52" y1="20.88" x2="18.52" y2="18.67" gradientTransform="translate(0 23.28) scale(1 -1)" gradientUnits="userSpaceOnUse">
      <stop offset=".26" stop-color="#f60d03"/>
      <stop offset=".42" stop-color="#f41307" stop-opacity=".72"/>
      <stop offset=".62" stop-color="#f02313" stop-opacity=".37"/>
      <stop offset=".84" stop-color="#e93b26" stop-opacity="0"/>
    </linearGradient>
    <linearGradient id="linear-gradient24" x1="35.08" y1="20.08" x2="37.07" y2="20.08" gradientTransform="translate(0 23.28) scale(1 -1)" gradientUnits="userSpaceOnUse">
      <stop offset=".08" stop-color="#811519"/>
      <stop offset=".22" stop-color="#871618"/>
      <stop offset=".39" stop-color="#971817"/>
      <stop offset=".51" stop-color="#a61a15"/>
      <stop offset=".65" stop-color="#a01916"/>
      <stop offset=".82" stop-color="#901717"/>
      <stop offset=".94" stop-color="#811519"/>
    </linearGradient>
    <linearGradient id="linear-gradient25" x1="24.52" y1="20.11" x2="35.53" y2="20.11" gradientTransform="translate(0 23.28) scale(1 -1)" gradientUnits="userSpaceOnUse">
      <stop offset=".08" stop-color="#370207"/>
      <stop offset=".3" stop-color="#3d0307"/>
      <stop offset=".58" stop-color="#4d0608"/>
      <stop offset=".89" stop-color="#670b0a"/>
      <stop offset=".94" stop-color="#6c0c0a"/>
    </linearGradient>
    <linearGradient id="linear-gradient26" x1="38.37" y1="20.04" x2="37.06" y2="20.1" xlink:href="#linear-gradient25"/>
    <radialGradient id="radial-gradient5" cx="-268.72" cy="228.26" fx="-268.72" fy="228.26" r="1" gradientTransform="translate(953.6 823.61) scale(3.51 -3.53)" xlink:href="#radial-gradient"/>
    <linearGradient id="linear-gradient27" x1="11.59" y1="8.08" x2="11.59" y2="3.36" xlink:href="#linear-gradient6"/>
    <radialGradient id="radial-gradient6" cx="-190.42" cy="141.23" fx="-190.42" fy="141.23" r="1" gradientTransform="translate(333.43 258.15) scale(1.69 -1.7)" xlink:href="#radial-gradient1"/>
    <linearGradient id="linear-gradient28" x1="11.59" y1="6.61" x2="11.59" y2="4.71" xlink:href="#linear-gradient7"/>
    <linearGradient id="linear-gradient29" x1="15.83" y1="5.39" x2="35.8" y2="5.39" gradientTransform="translate(0 23.28) scale(1 -1)" gradientUnits="userSpaceOnUse">
      <stop offset=".04" stop-color="#fe836d"/>
      <stop offset=".19" stop-color="#fe5b45"/>
      <stop offset=".34" stop-color="#fd3823"/>
      <stop offset=".42" stop-color="#fd2b16"/>
    </linearGradient>
    <radialGradient id="radial-gradient7" cx="-46.64" cy="-811.93" fx="-46.64" fy="-811.93" r="1" gradientTransform="translate(52.18 -193.29) scale(.87 -.26)" xlink:href="#radial-gradient4"/>
  </defs>
  <g class="st92">
    <g>
      <path class="st2" d="M19.41,20.88c9.38,0,16.98-.13,16.98-.28s-7.6-.28-16.98-.28-16.98.13-16.98.28,7.6.28,16.98.28Z"/>
      <path class="st2" d="M65.75,20.61s-.01,0,0,0c-2.42-.02-5.17-.04-8.1-.04-9.38,0-16.98.12-16.98.28s7.6.28,16.98.28c8.13,0,14.93-.1,16.59-.22l-8.48-.31Z"/>
      <path class="st63" d="M60.43,4.59s7.99-.1,8.21,0c.22.1,2.17,5.94,2.09,6.15-.09.21-2.59.22-2.59.22l-7.7-.07-.38-.73s.07-.59,0-1.51c-.07-.9-.1-1.34-.1-1.88"/>
      <path class="st3" d="M61.56,7.64s-.06-.02-.07-.05c0,0-.12-.38-.2-.58-.01-.04,0-.09.05-.1.04-.01.09,0,.1.05.07.2.2.58.2.58.01.04-.01.09-.05.1h-.02Z"/>
      <path class="st3" d="M61.93,8.01s-.07-.04-.07-.09c.01-.14-.03-.48-.14-.92-.11-.42-.28-.79-.28-.79-.01-.04,0-.09.04-.1.04-.01.09,0,.1.04.01.01.18.38.29.82.11.45.15.8.13.96,0,.04-.04.07-.07.07Z"/>
      <path class="st3" d="M63.28,6.45s-.07-.04-.07-.07v-.2s.01-.07.06-.09c.05,0,.07.02.07.07v.2s-.01.09-.06.09Z"/>
      <path class="st3" d="M63.67,6.48s-.01,0,0,0c-.05,0-.07-.04-.07-.09.02-.19-.04-.38-.14-.54-.02-.04-.01-.09.01-.11.04-.02.09-.01.11.01.14.19.2.42.17.64-.02.06-.05.09-.09.09Z"/>
      <path class="st3" d="M67.2,8.28s-.05-.01-.07-.05c-.12-.26-.28-.51-.48-.73-.02-.04-.02-.07,0-.11.04-.02.07-.02.11,0,.21.22.38.48.5.77.01.04,0,.09-.04.1,0,.02-.01.02-.02.02Z"/>
      <path class="st3" d="M68.32,6.44s-.05-.01-.06-.04c-.07-.12-.14-.23-.21-.36-.02-.04-.01-.09.02-.1.04-.02.09-.01.1.02.07.12.15.23.22.36.03.04.01.09-.02.1-.02.01-.04.01-.05.01Z"/>
      <path class="st3" d="M68.8,7s-.07-.02-.07-.06c-.02-.2-.09-.38-.16-.57-.02-.07-.05-.14-.07-.21-.01-.04-.02-.07-.04-.1-.04-.11-.07-.21-.12-.31-.05-.1-.13-.22-.27-.28-.04-.01-.05-.06-.04-.1.01-.04.06-.05.1-.04.14.06.26.19.34.36.05.11.09.22.12.33.01.04.02.06.04.1.02.06.05.14.07.2.07.2.15.4.17.61.01.04-.02.07-.07.07Z"/>
      <path class="st49" d="M43.66,8.16c-.06-.22-.32-.22-.52-.22.02-.62-.04-1.24.07-1.84.01-.05,0-.1-.01-.15v-.06c.01-.1.05-.2.09-.3.04-.11.07-.22.11-.33.02-.07,0-.16-.06-.22-.01.09-.06.17-.11.26-.07.16-.11.35-.16.52-.06.19-.12.36-.16.54-.04.19-.07.37-.12.54h0c-.04.28-.02.56-.05.82,0,.05.01.09.01.14,0,.06,0,.12.01.2,0,.04,0,.09.01.12t.02.02s-.01.06-.02.09v.16s-.01.04-.03.05c0,.11,0,.22.01.32.01.12.01.26.02.38-.02.17-.02.36-.01.53h0c0,.25,0,.47-.01.7,0,.12.11.23.22.22.04,0,.07-.01.11-.04.09-.01.16-.02.24-.04.09-.01.18-.02.25-.1.07-.07.09-.19.09-.28s.01-.21.01-.31c.01-.4.03-.79.03-1.17,0-.16.01-.37-.05-.56Z"/>
      <path class="st7" d="M70.72,2.82v.02c-.04.14-.18.22-.25.26h-.04c-.71,0-24.13.04-24.35.05h-.03c-.22.02-.64.2-.99.7h0s-.04.06-.06.1c-.2.32-.38.64-.53.95,0,.01-.01.02-.01.04-.12.27-.21.53-.27.78,0,.02-.01.04-.01.06-.11.52-.14.95-.14,1.21v2.68s-.06,1.42-.09,1.42c-.02-.01-.38-.2-.38-.2l-.17-.48v-2.5h.27v-2.98c0-.1-.1.14-.21.35-.1.21-.27.67-.28.72.01-.07.1-.78.2-1.06t.01-.02c.06-.17.23-.46.47-.78.02-.04.05-.06.07-.1.12-.16.26-.32.39-.48.28-.32.63-.64,1.04-.93.04-.02.08-.06.12-.09.03-.01.04-.02.06-.04.07-.05.13-.09.21-.12.01-.01.02-.01.04-.02.04-.02.09-.05.12-.07.09-.05.17-.1.26-.14.05-.02.09-.04.13-.06.06-.02.14-.06.2-.09.04-.01.07-.02.11-.04.05-.01.1-.04.13-.05.54-.2.99-.26,1.28-.31.01,0,.04,0,.05-.01.17-.02.37-.04.54-.04h.36s14.38-.02,19.46,0c1.06,0,1.71.01,1.76.02.09.01.17.05.24.1.04.02.07.05.11.09.11.1.18.23.2.4,0,.28.01.49-.04.66Z"/>
      <path class="st6" d="M70.74,2.56v.28c-.04.12-.12.22-.25.26h-.09l-24.2.05s-.09,0-.12.01c-.18.02-.36.11-.53.23.29-.46.87-1.03,2.04-1.16h22.7l.44.32Z"/>
      <path class="st85" d="M70.72,2.82v.02c-.04.12-.12.22-.25.26h-.09l-24.2.05s-.09,0-.12.01h.01c.15-.11.37-.21.69-.28.86-.19,22.62-.07,23.96-.06Z"/>
      <path class="st17" d="M71.37,15.42l-.04.02v1.41l-4.41.8-15.46-.09-6.83.27-.27.48-1.03.32v-.02c0-.32.01-3.6-.03-3.7-.04-.1-.06-.17-.18-.19h-.06c-.07,0-.1.01-.15-.02-.07-.06-.17-.1-.17-.26,0-.17,0-.57.15-.63.15-.06.69-.04.69-.04v-.05c0-.17-.01-.82.04-.98.02-.09.07-.16.12-.21.06-.06.13-.1.22-.14.04-.01.09-.02.12-.02h.01c.14-.02.27-.01.27-.01v-2.82h15.2v-5.44s3.89-.48,3.95-.48-2.97.85-3.02.98c-.05.12.03,5.34.03,5.34,0,0,.63.59.85.59s4.55.1,4.55.1c0,0,.26.48.32.48s.77-.46.77-.46l1.54.04,1.38.2,1.34,1.06.02.4v2.37s.06.07.06.07v.61Z"/>
      <path class="st9" d="M44.37,9.53l-.02,2.82s-.14,0-.25.02h-.01c-.09.01-.23.06-.34.16-.04.04-.07.07-.1.11-.1.16-.07.88-.06,1.08v.05s-.54.01-.58.01c-.02.01-.11.01-.16.06-.05.05-.07.2-.07.36s.02.33.05.38c.02.04.12.11.25.15-.07,0-.1.01-.15-.02-.07-.06-.17-.1-.17-.26v-4.12h.76v-.78l.86-.02Z"/>
      <path class="st14" d="M43.36,18.62v.25l-.91-.04-.26-.22c-.07-.05-.15-.1-.21-.15-.11-.11-.11-.28-.11-.43,0-.07,0-.15.02-.21.02-.07.07-.14.12-.2.07-.09.17-.16.27-.22.11-.06.25-.12.38-.14l.11-.04v-2.75c0,.16.1.2.17.26.05.05.09.02.15.02.13.04.21.05.23.21.01.14.02,3.65.02,3.65Z"/>
      <path class="st13" d="M41.92,17.73h.77c.2,0,.37.16.37.37,0,.2-.16.37-.37.37h-.47c-.17,0-.33-.12-.36-.3-.03-.16-.04-.36.05-.45Z"/>
      <path class="st2" d="M58.44,19.45s.47,1.87,3.17,1.63l-.87-1.92-1.72.06"/>
      <path d="M61.17,21.15c-2.31,0-2.75-1.67-2.75-1.68l.07-.02s.49,1.82,3.08,1.61l-.85-1.84-1.69.05v-.07l1.74-.06.91,1.99h-.05c-.17.02-.33.04-.47.04Z"/>
      <path class="st2" d="M44.13,18.66s.54,1.66,2.74,2.23v-2.08h-1.71l-.56-.32"/>
      <path d="M46.9,20.93h-.05c-2.2-.58-2.76-2.25-2.77-2.26l.07-.02s.55,1.62,2.67,2.19v-1.99h-1.68l-.57-.33.04-.06.55.32h1.73v2.16Z"/>
      <path class="st91" d="M66.43,19.39h-1.07l-5.38.06s-.49-3.7,2.48-3.9c2.8-.2,3.88,1.04,3.96,3.83Z"/>
      <path d="M59.95,19.49v-.04s-.24-1.9.69-3.05c.43-.53,1.04-.83,1.83-.88,1.34-.09,2.3.15,2.93.73.68.62,1.02,1.62,1.07,3.14v.04h-1.11l-5.41.06ZM63,15.57c-.17,0-.34.01-.53.02-.76.05-1.35.35-1.78.85-.85,1.04-.7,2.71-.68,2.97l5.34-.06h1.03c-.05-1.48-.38-2.45-1.03-3.05-.54-.49-1.31-.73-2.36-.73Z"/>
      <path class="st91" d="M51.99,19.46h-4.87l-.87-.78h-2.92v-.07l.7-.54s3.33.23,3.33,0,1.83,0,1.83,0l.7-2.99s-.28-.96.74.16c1.02,1.13,2,2.15,2,2.15l.07.85.07.35"/>
      <path d="M51.99,19.5h-4.9s-.86-.78-.86-.78h-2.93v-.12l.72-.57h.01c1.52.11,3.19.16,3.29.04,0-.01,0-.04.02-.06.18-.17,1.52-.01,1.8.02l.69-2.96c-.03-.07-.09-.33.04-.41.07-.05.25-.04.77.54,1.01,1.11,1.99,2.15,2,2.15h.01s.09.88.09.88l.07.33h-.07s-.07-.33-.07-.33l-.07-.84c-.1-.11-1.03-1.1-1.99-2.15-.5-.56-.65-.54-.68-.52-.06.04-.04.21,0,.33h0v.02l-.7,3.03h-.04c-.61-.07-1.64-.16-1.78-.05h0s0,.05-.02.06c-.21.2-2.95.01-3.33-.01l-.68.53h0s2.9.01,2.9.01h.01s.86.78.86.78h4.86v.06h-.04Z"/>
      <path class="st47" d="M48.19,21.15c1.93,0,3.5-1.58,3.5-3.52s-1.57-3.52-3.5-3.52-3.5,1.58-3.5,3.52,1.57,3.52,3.5,3.52Z"/>
      <path d="M48.19,21.21c-1.96,0-3.56-1.61-3.56-3.59s1.6-3.59,3.56-3.59,3.56,1.61,3.56,3.59-1.6,3.59-3.56,3.59ZM48.19,14.15c-1.9,0-3.45,1.56-3.45,3.47s1.55,3.47,3.45,3.47,3.45-1.56,3.45-3.47-1.55-3.47-3.45-3.47Z"/>
      <path class="st10" d="M48.19,19.77c-1.18,0-2.15-.96-2.15-2.16s.96-2.16,2.15-2.16,2.15.96,2.15,2.16-.96,2.16-2.15,2.16Z"/>
      <path class="st2" d="M48.19,19.8c-1.19,0-2.16-.98-2.16-2.18s.97-2.18,2.16-2.18,2.16.98,2.16,2.18-.97,2.18-2.16,2.18ZM48.19,15.48c-1.17,0-2.12.96-2.12,2.14s.96,2.14,2.12,2.14,2.12-.96,2.12-2.14-.94-2.14-2.12-2.14Z"/>
      <path class="st78" d="M48.19,19.31c-.93,0-1.7-.77-1.7-1.71s.76-1.71,1.7-1.71,1.69.77,1.69,1.71-.76,1.71-1.69,1.71Z"/>
      <path class="st2" d="M48.19,19.34c-.95,0-1.71-.77-1.71-1.72s.76-1.72,1.71-1.72,1.71.77,1.71,1.72-.76,1.72-1.71,1.72ZM48.19,15.94c-.92,0-1.67.75-1.67,1.68s.75,1.68,1.67,1.68,1.67-.75,1.67-1.68-.75-1.68-1.67-1.68Z"/>
      <path class="st12" d="M48.19,18.56c-.51,0-.93-.42-.93-.94s.42-.94.93-.94.93.42.93.94-.42.94-.93.94Z"/>
      <path d="M48.19,18.57c-.53,0-.96-.43-.96-.96s.43-.96.96-.96.96.43.96.96-.43.96-.96.96ZM48.19,16.69c-.5,0-.92.41-.92.93s.4.93.92.93.92-.41.92-.93-.42-.93-.92-.93Z"/>
      <path class="st57" d="M48.19,18.1c-.27,0-.48-.22-.48-.48s.22-.48.48-.48.48.22.48.48c.01.26-.21.48-.48.48Z"/>
      <path class="st4" d="M48.32,16.13h-.11v.37h.11v-.37Z"/>
      <path class="st4" d="M48.32,18.81h-.11v.37h.11v-.37Z"/>
      <path class="st4" d="M48.9,16.26l-.17.33.1.05.17-.33-.1-.05Z"/>
      <path class="st4" d="M47.7,18.67l-.16.33.1.05.16-.33-.1-.05Z"/>
      <path class="st4" d="M49.16,16.93l-.07-.09.27-.24.09.09-.28.23Z"/>
      <path class="st4" d="M47.16,18.7l-.07-.09.28-.24.07.09-.28.23Z"/>
      <path class="st4" d="M49.67,17.08l-.35.12.04.1.35-.12-.04-.1Z"/>
      <path class="st4" d="M47.17,17.97l-.35.12.04.1.35-.12-.04-.1Z"/>
      <path class="st4" d="M49.41,17.6v.11h.37s0-.11,0-.11h-.37Z"/>
      <path class="st4" d="M46.75,17.58v.11s.37,0,.37,0v-.11s-.37,0-.37,0Z"/>
      <path class="st4" d="M49.33,18.04l-.04.1.34.14.04-.1-.34-.14Z"/>
      <path class="st4" d="M46.9,17.01l-.04.1.34.14.04-.1-.34-.14Z"/>
      <path class="st4" d="M49.27,18.78l-.25-.26.07-.09.26.27-.09.07Z"/>
      <path class="st4" d="M47.42,16.87l-.25-.27.07-.07.26.26-.09.09Z"/>
      <path class="st4" d="M48.77,18.7l-.1.04.14.34.1-.04-.14-.34Z"/>
      <path class="st4" d="M47.73,16.23l-.1.04.14.34.1-.04-.14-.34Z"/>
      <path class="st74" d="M47.47,17.58c.05,0,.1-.04.1-.1s-.04-.1-.1-.1-.1.04-.1.1.04.1.1.1Z"/>
      <path class="st74" d="M48.84,17.58c.05,0,.1-.04.1-.1s-.04-.1-.1-.1-.1.04-.1.1.04.1.1.1Z"/>
      <path class="st74" d="M48.65,18.33c.05,0,.1-.04.1-.1s-.04-.1-.1-.1-.1.04-.1.1.04.1.1.1Z"/>
      <path class="st74" d="M47.75,18.33c.05,0,.1-.04.1-.1s-.04-.1-.1-.1-.1.04-.1.1.04.1.1.1Z"/>
      <path class="st74" d="M48.19,17.03c.05,0,.1-.04.1-.1s-.04-.1-.1-.1-.1.04-.1.1.04.1.1.1Z"/>
      <path class="st81" d="M62.86,21.4c1.42,0,2.58-1.16,2.58-2.6s-1.15-2.6-2.58-2.6-2.58,1.16-2.58,2.6,1.15,2.6,2.58,2.6Z"/>
      <path d="M62.86,21.47c-1.45,0-2.64-1.19-2.64-2.66s1.18-2.66,2.64-2.66,2.64,1.19,2.64,2.66-1.18,2.66-2.64,2.66ZM62.86,16.26c-1.39,0-2.53,1.14-2.53,2.55s1.13,2.55,2.53,2.55,2.53-1.14,2.53-2.55-1.14-2.55-2.53-2.55Z"/>
      <path class="st11" d="M62.86,20.4c-.87,0-1.58-.72-1.58-1.6s.71-1.6,1.58-1.6,1.58.72,1.58,1.6-.71,1.6-1.58,1.6Z"/>
      <path class="st2" d="M62.86,20.42c-.88,0-1.6-.72-1.6-1.61s.71-1.61,1.6-1.61,1.6.72,1.6,1.61-.71,1.61-1.6,1.61ZM62.86,17.24c-.86,0-1.56.7-1.56,1.57s.7,1.57,1.56,1.57,1.56-.7,1.56-1.57-.7-1.57-1.56-1.57Z"/>
      <path class="st80" d="M62.86,20.06c-.69,0-1.24-.57-1.24-1.25s.57-1.25,1.24-1.25,1.24.57,1.24,1.25-.55,1.25-1.24,1.25Z"/>
      <path class="st2" d="M62.86,20.08c-.7,0-1.26-.57-1.26-1.27s.57-1.27,1.26-1.27,1.26.57,1.26,1.27-.57,1.27-1.26,1.27ZM62.86,17.57c-.68,0-1.23.56-1.23,1.24s.55,1.24,1.23,1.24,1.23-.56,1.23-1.24-.55-1.24-1.23-1.24Z"/>
      <path class="st8" d="M62.87,19.71c-.49,0-.9-.41-.9-.9s.4-.9.9-.9.9.41.9.9-.41.9-.9.9Z"/>
      <path d="M62.86,19.72c-.5,0-.91-.41-.91-.92s.4-.91.91-.91.91.41.91.91-.4.92-.91.92ZM62.86,17.93c-.48,0-.87.4-.87.88s.39.88.87.88.87-.4.87-.88-.39-.88-.87-.88Z"/>
      <path class="st57" d="M62.86,19.17c-.2,0-.36-.16-.36-.36s.16-.36.36-.36.36.16.36.36-.16.36-.36.36Z"/>
      <path class="st39" d="M59.6,4.18h.88v-.52s-1.87-.09-1.96-.05c-.1.04-.27.11-.4.27-.13.15-.32.46-.33.48-.01.02-.04.15-.05.21-.01.06-.01.09-.01.09v4.9h1.9s-.03-5.38-.03-5.38Z"/>
      <path class="st60" d="M71.31,16.03h-.58v.84h.58v-.84Z"/>
      <path class="st87" d="M71.55,14.69h-.23v.72h.23v-.72Z"/>
      <path class="st71" d="M71.31,13.12h-.55v.59h.55v-.59Z"/>
      <path class="st65" d="M71.31,13.12h-.31v.33h.31v-.33Z"/>
      <path class="st71" d="M71.31,12.24h-.55v.59h.55v-.59Z"/>
      <path class="st65" d="M71.31,12.24h-.22v.45h.22v-.45Z"/>
      <path class="st45" d="M70.37,12.34v.4h-3.79l-1.38-.27,4.97-.19"/>
      <path class="st90" d="M47.51,9.55v-.04c-.05-.21-.16-.4-.38-.43-.23-.04-.5-.02-.74-.02-.47-.01-.92-.01-1.39-.01h-.01s-.07-.05-.11-.05h-.01s-.06,0-.09.02c-.02.01-.05.02-.07.05-.01.01-.02.02-.04.04-.06.02-.12.06-.17.11-.05.05-.09.1-.11.16-.01.04-.04.07-.05.12v.04h3.17Z"/>
      <path class="st91" d="M62.12,11.96s.02-.09.04-.14c.01-.06.04-.12.05-.17-.02-.06-.07-.11-.15-.14-.05-.01-.1-.02-.14-.05-.02-.01-.04-.01-.06-.02,0,0-.04-.01-.05-.02-.09-.04-.16-.07-.25-.11-.18-.09-.37-.17-.55-.25-.12-.04-.26-.06-.36.05-.05.05-.07.12-.1.19-.02.05-.04.1-.06.14-.05.14-.02.28.1.37.1.06.21.1.33.11h.02c.17.1.37.19.55.26.13.05.32.12.45.04.06-.04.1-.1.12-.15.01-.02.02-.06.04-.1Z"/>
      <path class="st91" d="M60.62,8.97l.69,1.29s4.8-.02,4.81,0c.01.02.17.33.17.33l.63-.02s.82-.82.85-.82.24.11.2.22c-.05.11-.86.95-.86.95,0,0-.55.69-.68.77-.12.07-.22.06-.29.02-.07-.04-.13-.14-.15-.15-.01-.02-.04-.07-.04-.07v-.56s-3.17-.01-3.17-.01l2.59,1.19h2.19s-.05-1.19-.05-1.19l-.54-.02.82-1.04-.06-.16-1.87-4.91.77.05,1.99,5.6s.77.05.79.05h.7s-.17-.84-.16-.98c.01-.15.16-.22.23-.23.07-.01.47-.1.47-.1l.61.66.07,2h.31v.3s-.33.04-.33.04l-.03.3h-6.14s-4.15-1.68-4.47-1.83c-.32-.16-.42-.42-.44-.64-.02-.22.01-6.44.01-6.44,0,0,6.84-.04,7.26.01.42.05.9.33,1.08.56.2.22.34.52.34.52,0,0,.03.02.05.09.03.06-.4.11-.4.11,0,0-1.07.07-2.05.07s-1.9-.07-2.06-.05c-.33.04-.38.26-.38.26h-3.46v3.85Z"/>
      <path class="st91" d="M70.2,9.27l-1.77-4.81.52.16,1.78,4.79"/>
      <path class="st46" d="M59.29,5.42h-1.6v1.29h1.6v-1.29Z"/>
      <path class="st46" d="M59.29,7h-1.6v1.29h1.6v-1.29Z"/>
      <path class="st46" d="M58,5.14h.59v-1.05h-.32c-.15,0-.27.12-.27.27v.78Z"/>
      <path class="st26" d="M68.61,4.14c-.22-.07-.72-.25-1.31-.32-.69-.09-7.42.04-9.24.06.22-.22.53-.37.87-.37h8.28c.55.01,1.06.25,1.41.63Z"/>
      <path class="st50" d="M65.26,7.68s-.04-.01-.05-.01c-.04-.01-.07-.04-.1-.07,0-.01-.01-.02-.01-.04-.01-.02-.04-.05-.05-.07h0s-.01-.04-.01-.05h0v-.04s0-.06-.01-.09c-.01-.12-.01-.25-.01-.37,0-.23,0-.47-.02-.69,0-.01.01-.02.01-.04.01-.33.03-.66.03-.99v-.4h-.23v-.04h-.27c-.07,0-.13,0-.21.01-.01,0-.02.01-.04.01-.02.02-.05.05-.06.06-.02.02-.05.05-.06.07,0,.01-.01.01-.01.02h-.01s-.02.04-.02.05-.01.01-.01.02h0c-.02.1-.02.2-.02.28.01.1.01.21.02.31,0,.02,0,.04.01.06-.01.19-.02.37-.04.56v.25h0v1.09c.01.11.04.21.12.28.09.07.21.07.32.09.07.01.13.01.21.01.05-.02.11-.01.17-.01.09.01.17.01.26-.01.07-.02.12-.09.17-.15v-.04s-.05-.05-.06-.09Z"/>
      <path class="st52" d="M66.45,6.34s-.01-.04-.02-.06c-.01-.02-.01-.05-.02-.07t0-.01s-.01-.01-.01-.02c-.02-.07-.06-.14-.06-.22h-.05c-.06-.27-.15-.54-.26-.8.02-.04.04-.07.02-.11,0-.12-.1-.23-.22-.22h-.69s-.06,0-.09.02c-.02.01-.04.01-.05.02v.36h.01c.01.11,0,.23,0,.35v1.32s0,.04.01.05v.4s.01.07.01.1h0c0,.12.1.25.22.23.12-.01.23-.01.36-.01.1,0,.18.01.27-.06.07-.07.09-.17.09-.27.01-.25.01-.49,0-.74.15-.06.29-.14.43-.22.02.01.04,0,.05-.01Z"/>
      <path class="st89" d="M67.52,10.93h2.71v1.26h-2.71v-1.26Z"/>
      <path class="st86" d="M45.81,13.75h-1.21c-.14,0-.25.11-.25.25,0,.12.09.22.21.25h.07s.09.82.09.82l1.09-.85"/>
      <path class="st38" d="M59.62,9.55h-.61v5.95h.61v-5.95Z"/>
      <path class="st72" d="M61.17,15.32h-9.06v.35h9.06v-.35Z"/>
      <path class="st5" d="M57.23,13.82h-.07c-.09,0-.16-.07-.16-.16v-.3c0-.09.07-.16.16-.16h.07c.09,0,.16.07.16.16v.3c0,.09-.06.16-.16.16Z"/>
      <path class="st69" d="M64.31,3.49l-.33.02v-.38h.32v.36Z"/>
      <path class="st69" d="M65.96,3.15v.37h.31v-.4h-.27"/>
      <path class="st56" d="M69.97,15.07h-2.92c-.12,0-.21-.1-.21-.21v-.3c0-.12.1-.21.21-.21h2.92c.12,0,.21.1.21.21v.3c.01.11-.09.21-.21.21Z"/>
      <path class="st16" d="M50.69,9.55h-.63v2.89h.63v-2.89Z"/>
      <path class="st16" d="M55.12,9.55h-.63v2.89h.63v-2.89Z"/>
      <path class="st51" d="M55.12,12.44h-.63v3.24h.63v-3.24Z"/>
      <path class="st90" d="M72.79,18.65c0,.36.02.74-.02,1.1h-.18v-.21h-.93v-.16h-5.22c0-.12,0-.25-.01-.36v-.11c-.06-.98-.33-1.78-.85-2.37h.55l5.18.06h.63v1.89h.34c0-.1.04-.19.1-.25.06-.06.15-.1.25-.1h.07s.1.01.13.02c-.02.17-.04.33-.04.48Z"/>
      <path class="st90" d="M59.97,19.29c.01.1.01.16.01.16h-7.99c.13-.8.1-1.53-.09-2.16-.44-1.55-1.81-2.44-3.83-2.29-2.86.22-3.33,3.05-3.33,3.05h-.71s-.28-4.92,3.83-5.3c4.11-.38,4.56,2.04,4.69,3.72h8.05c-.55.7-.66,1.67-.66,2.3,0,.22.01.41.03.52Z"/>
      <path class="st48" d="M60.62,16.48c-.55.7-.66,1.67-.66,2.3,0,.21.01.4.02.51l-.77.16s-.02-.27-.01-.68c.01-.68.13-1.72.65-2.31h.34l.43.02Z"/>
      <path class="st48" d="M66.84,18.91v.11h-.42v-.11c-.06-.98-.33-1.78-.85-2.37h.55c.68.92.71,2.03.71,2.37Z"/>
      <path class="st25" d="M73.67,19.28c0,.14-.05.26-.13.35-.09.09-.21.14-.34.14h-.61v-.21h-.66v-1.06h.34c0-.1.04-.19.1-.25.06-.06.15-.1.25-.1h.07c.18,0,.34.15.34.35v.3h.18c.26.01.47.22.47.49Z"/>
      <path class="st58" d="M59.99,19.46h-7.99c.13-.8.1-1.53-.09-2.16.15.2.27.42.34.63.21.66.21.85.21.85h7.49c0,.21.01.4.02.51,0,.11.01.17.01.17Z"/>
      <path class="st59" d="M71.91,18.49v1.06h-.27v-.16h-5.22c0-.12,0-.25-.01-.36v-.11h5.27l.23-.43Z"/>
      <path class="st55" d="M59.99,19.5h-8.04v-.05c.15-.79.11-1.52-.06-2.14-.45-1.58-1.84-2.41-3.79-2.26-2.8.21-3.29,2.99-3.29,3.02v.04h-.77v-.04s-.23-4.97,3.87-5.35c1.57-.15,2.76.11,3.54.77.9.75,1.11,1.92,1.19,2.96h8.09l-.05.06c-.54.69-.65,1.62-.66,2.28,0,.22.01.4.02.51.01.1.01.16.01.16v.05s-.05.01-.05.01ZM52.04,19.43h7.91s-.01-.07-.01-.12c-.01-.11-.02-.28-.02-.52,0-.66.12-1.56.63-2.26h-8.02v-.04c-.09-1.04-.29-2.2-1.17-2.94-.76-.64-1.93-.89-3.47-.74-3.84.36-3.81,4.79-3.79,5.23h.64c.06-.31.66-2.84,3.35-3.05,2-.15,3.41.69,3.88,2.31.18.63.21,1.35.08,2.14Z"/>
      <path class="st55" d="M73.19,19.8h-.65v-.21h-.93v-.16h-5.22v-.04c0-.12,0-.25-.01-.36v-.11c-.07-1.06-.32-1.82-.8-2.35l-.06-.06h.59s5.18.07,5.18.07h.66v1.89h.27c.01-.09.05-.17.11-.24.07-.07.17-.11.27-.11h.07s.11.01.16.04c.13.06.22.2.22.35v.26h.15c.28,0,.52.23.52.52,0,.14-.05.27-.15.37-.11.09-.25.14-.38.14ZM72.61,19.72h.58c.12,0,.23-.05.31-.14.09-.09.13-.2.13-.32,0-.25-.2-.45-.44-.45h-.22v-.33c0-.12-.07-.22-.18-.27-.04-.01-.09-.02-.12-.02h-.07c-.09,0-.16.04-.21.09-.06.06-.09.14-.09.21v.04h-.42v-1.89h-.59l-5.6-.06c.44.54.69,1.29.76,2.32v.12c0,.1.01.21.01.32h5.22v.16h.93v.22Z"/>
      <path class="st62" d="M73.15,19.24h-.68c-.09,0-.15-.07-.15-.15v-.07c0-.09.07-.15.15-.15h.68c.09,0,.15.07.15.15v.07c0,.07-.06.15-.15.15Z"/>
      <path class="st1" d="M44.72,15.51c.12-.75.59-1.46,1.24-1.93.65-.47,1.47-.68,2.25-.68.79-.01,1.6.19,2.27.62.66.46,1.14,1.15,1.26,1.92-.18-.33-.39-.63-.65-.88-.26-.26-.54-.46-.85-.62-.63-.31-1.31-.43-2.01-.42-.7.01-1.39.15-2,.48-.31.16-.59.38-.84.64-.28.23-.5.53-.67.87Z"/>
      <path class="st83" d="M48.32,13.44c.43,0,.79-.12.79-.26s-.35-.26-.79-.26-.79.12-.79.26.35.26.79.26Z"/>
      <path class="st64" d="M66.93,17.67h3.35l-3.3.23v.83s-.15-1.06-.05-1.06Z"/>
      <path class="st55" d="M43.37,18.68h-.07v-3.67c0-.14-.11-.23-.23-.23-.18,0-.33-.15-.33-.33v-.37c0-.19.15-.33.33-.33h.5v-.8c0-.33.27-.59.59-.59h.17v-2.83h13.35v-4.76c0-.33.12-.64.36-.88.24-.25.57-.38.9-.38h8.28c.54,0,1.07.23,1.44.64.17.19.29.4.38.63l1.65,4.41.61.68.06,1.95h.32v.41h-.32v2.44h.2v.8h-.17v1.15h-.07v-1.22h.17v-.64h-.2v-2.6h.32v-.26h-.32l-.06-2-.6-.67-1.65-4.43c-.09-.22-.21-.43-.37-.61-.36-.4-.86-.62-1.39-.62h-8.28c-.32,0-.63.12-.85.36-.22.22-.33.52-.33.83v4.83h-13.35v2.83h-.26c-.28,0-.51.23-.51.52v.88h-.58c-.15,0-.26.11-.26.26v.37c0,.15.11.26.26.26.17,0,.32.14.32.31v3.67Z"/>
      <path class="st55" d="M64.03,3.13h-.07v.38h.07v-.38Z"/>
      <path class="st55" d="M64.34,3.13h-.07v.38h.07v-.38Z"/>
      <path class="st55" d="M65.99,3.13h-.07v.4h.07v-.4Z"/>
      <path class="st55" d="M66.3,3.13h-.07v.4h.07v-.4Z"/>
      <path class="st55" d="M42.8,14.07h-.07v-6.44c0-.94.21-1.84.61-2.68h0s.01-.02.01-.02c.13-.27.29-.54.47-.8h.01s.04-.07.06-.1c.4-.56.88-1.03,1.44-1.42.04-.02.09-.06.12-.09.02-.01.04-.02.06-.04.07-.05.14-.09.21-.12l.04-.02s.09-.05.12-.07c.12-.07.26-.14.39-.2.06-.02.13-.06.2-.09.04-.01.07-.02.11-.04.05-.02.1-.04.13-.05.42-.15.87-.26,1.33-.31.18-.02.37-.04.54-.04h21.44c.15,0,.28.04.39.12.05.02.09.06.11.1.13.14.21.32.21.52v.49s0,.05-.01.07c0,.01,0,.02-.01.04-.04.14-.13.23-.27.28h-.01s-.02,0-.04.01h-.06l-24.2.05s-.09,0-.12.01c-.17.02-.34.1-.52.23-.15.11-.29.26-.44.46-.21.28-.42.64-.58,1.04v.04c-.12.27-.22.56-.28.83-.1.36-.15.69-.15.96v2.73h.26c.03-.28.26-.52.55-.52h2.07c.31,0,.55.25.55.56h-.07c0-.26-.21-.48-.48-.48h-2.07c-.26,0-.48.21-.48.48v.04h-.39v-.04s-.01-2.77-.01-2.77c0-.27.05-.62.15-.99.07-.28.16-.57.28-.84l.02-.05c.17-.4.37-.77.59-1.04,0,0,0-.01.01-.01.15-.2.31-.36.45-.47.18-.14.37-.22.54-.25.04-.01.09-.01.13-.01l24.2-.05h.09c.11-.02.2-.12.22-.22v-.58c0-.17-.06-.33-.18-.46-.02-.02-.06-.05-.1-.09-.1-.07-.22-.11-.36-.11h-21.44c-.18,0-.36.02-.54.04-.45.05-.9.16-1.31.31-.05.01-.09.04-.13.05-.04.01-.07.02-.11.04-.06.02-.14.06-.2.09-.14.06-.27.12-.39.2-.04.02-.09.05-.12.07l-.04.02c-.07.04-.14.09-.21.12-.03.01-.04.02-.06.04-.04.02-.08.06-.12.09-.55.38-1.03.85-1.43,1.4-.02.02-.04.06-.06.09h0c-.17.26-.33.53-.47.8h0c-.41.84-.61,1.73-.61,2.67v6.42h.02Z"/>
      <path class="st55" d="M59.61,9.58h-1.9v-.07h1.83v-5.39h9.09v.07h-9.01v5.39Z"/>
      <path class="st55" d="M65.04,8h-.71c-.17,0-.31-.14-.31-.31v-2.46c0-.25.2-.45.44-.45h.59v1.61h-.07v-1.53h-.5c-.2,0-.36.16-.36.36v2.46c0,.12.1.23.23.23h.71c.12,0,.23-.1.23-.23h.07c-.02.19-.16.32-.33.32Z"/>
      <path class="st55" d="M66.95,10.61h-.71l-.15-.31h-4.79l-.71-1.34v-3.91h3.51v.07h-3.44v3.82l.69,1.26h4.8l.15.31h.63l.8-.8-1.3-3.3-.37.2v.77c0,.19-.15.33-.33.33h-.4c-.18,0-.33-.15-.33-.33v-2.61h1.01l.48,1.57,1.34,3.39-.86.88ZM65.05,4.86v2.53c0,.15.11.26.26.26h.41c.15,0,.26-.11.26-.26v-.82l.42-.22-.45-1.5h-.88Z"/>
      <path class="st55" d="M71.31,12.5h-6.13l-4.48-1.83c-.29-.12-.48-.41-.48-.72v-5.79h.07v5.79c0,.28.17.54.43.66l4.48,1.83h6.1v.06Z"/>
      <path class="st55" d="M67.55,12.17h-2.2l-2.8-1.26h3.43v.54c0,.15.12.27.27.27.07,0,.16-.04.21-.1l.61-.72h.48v1.26ZM65.38,12.09h2.1v-1.11h-.37l-.59.69c-.06.07-.16.12-.27.12-.2,0-.34-.16-.34-.35v-.46h-3l2.47,1.1Z"/>
      <path class="st55" d="M70.15,10.55h-.78l-.76-.06v-.02s-2.01-5.6-2.01-5.6l2-.09v.02s1.66,4.51,1.66,4.51h-.05c-.06,0-.12.02-.17.07-.04.05-.06.12-.05.19l.17.98ZM68.66,10.41l.71.06h.69l-.16-.88c-.01-.09.01-.17.06-.25.05-.05.11-.09.17-.1l-1.6-4.38-1.84.07,1.96,5.47Z"/>
      <path class="st55" d="M62.06,5.08h-.07s.58,5.18.58,5.18h.07s-.58-5.18-.58-5.18Z"/>
      <path class="st55" d="M65.75,7.7h-.07s.29,2.58.29,2.58h.07s-.29-2.58-.29-2.58Z"/>
      <path class="st55" d="M61.82,12.32s-.06-.01-.1-.02l-1.15-.47c-.06-.02-.11-.07-.15-.14-.02-.06-.02-.14,0-.2l.15-.36c.05-.14.21-.2.34-.15l1.15.47c.06.02.11.07.15.14.02.06.02.14,0,.2l-.15.36c-.05.11-.15.17-.24.17ZM61.75,12.23c.1.04.2-.01.25-.1l.15-.36s.01-.1,0-.14c-.02-.05-.05-.09-.1-.1l-1.15-.47c-.1-.04-.2.01-.25.1l-.15.36s-.01.1,0,.14c.02.05.05.09.1.1l1.15.47Z"/>
      <path class="st55" d="M43.72,7.98h-.61v-.04s.01-1.38.06-1.83c.05-.45.46-1.19.48-1.21l.07-.12v3.2ZM43.18,7.89h.47v-2.83c-.12.23-.36.73-.39,1.05-.05.41-.07,1.56-.07,1.78Z"/>
      <path class="st55" d="M66.89,10.55l-.93,1.02.05.05.93-1.02-.05-.05Z"/>
      <path class="st55" d="M67.1,10.98l-.05-.05.79-.79s.06-.1.06-.16-.04-.11-.07-.15l-.09-.06.05-.06.09.06c.06.05.1.12.11.2,0,.07-.02.16-.07.21l-.81.8Z"/>
      <path class="st55" d="M43.4,18.89l-.98-.02-.44-.36c-.1-.07-.15-.19-.15-.31v-.28c0-.11.05-.22.14-.3l.31-.27.45-.17v-2.96h.07v3l-.5.19-.29.26c-.07.06-.11.15-.11.25v.28c0,.1.05.2.12.26l.43.33.88.02v-.12h.07v.2Z"/>
      <path class="st55" d="M43.56,10.37h-.8v-.07h.72v-.79h.54v.07h-.47v.79Z"/>
      <path class="st22" d="M42.59,18.58h-5.54v-1.25h5.54c.28,0,.5.22.5.51v.23c0,.28-.22.51-.5.51Z"/>
      <path class="st21" d="M35.67,16.99h1.23c.15,0,.27.12.27.27v.02s.53.33.65.66h-2.71l.56-.95Z"/>
      <path class="st73" d="M37.51,18.05v-.16c0-.15-.12-.27-.27-.27h-1.92l-.47.47.04.09"/>
      <path class="st28" d="M37.56,18.87s.31-.32.32-.48c.02-.16-.05-.43-.06-.46-.01-.02-2.75,0-2.75,0l-.55.56.22.05,2.81.31"/>
      <path class="st23" d="M37.56,18.21h-3.5v.67h3.5v-.67Z"/>
      <path class="st55" d="M33.85,18.91l.64-.46.34-.33v-.05s.41-.42.41-.42l.42-.7h1.25c.17,0,.31.14.31.31.01.01.04.02.06.04h5.21c.18,0,.37.07.49.22.12.14.18.32.17.51-.04.33-.33.59-.69.59h-4.64c-.06.1-.15.19-.18.22-.03.02-.06.05-.1.05l-3.68.02ZM34.91,18.09v.05s-.37.38-.37.38l-.45.32,3.44-.02s.04-.01.05-.02c.02-.02.11-.12.18-.24h.01s4.68-.01,4.68-.01c.31,0,.58-.24.6-.53.01-.16-.04-.32-.15-.45-.11-.12-.27-.2-.43-.2h-5.24s-.09-.07-.09-.07h-.01v-.05c0-.14-.11-.23-.23-.23h-1.2l-.4.67-.38.41Z"/>
      <path class="st55" d="M37.83,18.61l-.06-.04c.1-.16.12-.33.07-.51-.11-.41-.59-.69-.6-.69l.04-.06s.52.3.63.74c.06.19.03.37-.07.56Z"/>
      <path class="st53" d="M24.72,10.19h-1.07v.63h1.07v-.63Z"/>
      <path class="st55" d="M24.77,10.86h-1.15v-.7h1.15v.7ZM23.69,10.78h.99v-.56h-.99v.56Z"/>
      <path class="st53" d="M12.84,10.6h-1.77l.22-.27v-.49h1.02v.51l.53.26Z"/>
      <path class="st55" d="M13.02,10.63h-2.03l.27-.32v-.52h1.09v.52l.66.32ZM11.15,10.56h1.52l-.39-.19v-.49h-.95v.47l-.18.21Z"/>
      <path class="st53" d="M9.57,10.29h-.29v.42h.29v-.42Z"/>
      <path class="st55" d="M9.6,10.76h-.37v-.49h.37v.49ZM9.31,10.68h.22v-.35h-.22v.35Z"/>
      <path class="st53" d="M10.19,10.29h-.29v.42h.29v-.42Z"/>
      <path class="st55" d="M10.23,10.76h-.37v-.49h.37v.49ZM9.93,10.68h.22v-.35h-.22v.35Z"/>
      <path class="st53" d="M10.61,10.72h-.44v-.45h.33c.06,0,.11.05.11.11v.33Z"/>
      <path class="st55" d="M10.65,10.76h-.53v-.53h.34c.1,0,.17.07.17.17v.36ZM10.19,10.68h.37v-.27s-.05-.1-.1-.1h-.27v.37Z"/>
      <path class="st42" d="M36.61,8.93c.07-.22-.09-.51-.32-.56-.26-.06-.48.07-.55.32-.02.05-.04.11-.05.16-.01.01-.02.02-.04.05-.25.33-.34.63-.71.87-.13.09-.27.17-.42.25-.25.06-.49.11-.74.15-.58.1-.33.98.25.88.27-.04.5-.04.75-.15.01,0,.01-.01.03-.01.18-.05.36-.1.54-.16.17-.06.26-.19.3-.33.17-.14.33-.27.47-.45.06-.09.12-.19.17-.27.11-.05.2-.15.23-.28.01-.02.01-.06.02-.09.01-.02.03-.06.03-.09-.01-.11.02-.2.05-.28Z"/>
      <path class="st24" d="M37.22,3.4h-1.35v7.32h1.35V3.4Z"/>
      <path class="st2" d="M37.27,10.76h-1.44V3.36h1.44v7.39ZM35.9,10.68h1.28V3.44h-1.28v7.25Z"/>
      <path class="st67" d="M14.42,10.07v.52h-.74v-.52c0-.09.07-.16.16-.16h.42c.09,0,.16.07.16.16Z"/>
      <path class="st70" d="M14.42,10.07v.19h-.74v-.19c0-.09.07-.16.16-.16h.42c.09,0,.16.07.16.16Z"/>
      <path class="st41" d="M14.42,10.07h-.24l-.49-.07v.06c-.01-.09.06-.14.15-.14h.42c.1-.01.17.06.17.15Z"/>
      <path class="st55" d="M14.45,10.62h-.81v-.56c0-.11.09-.2.2-.2h.42c.11,0,.2.09.2.2v.56ZM13.72,10.54h.66v-.48c0-.06-.05-.12-.12-.12h-.42c-.06,0-.12.05-.12.12v.48Z"/>
      <path class="st67" d="M26.57,10.24v.57h-.49v-.57c0-.1.05-.17.11-.17h.28c.06,0,.1.07.1.17Z"/>
      <path class="st70" d="M26.57,10.24v.2h-.49v-.2c0-.1.05-.17.11-.17h.28c.06,0,.1.07.1.17Z"/>
      <path class="st41" d="M26.57,10.24h-.16l-.33-.09v.06c0-.1.05-.15.11-.15h.28c.06,0,.1.07.1.17Z"/>
      <path class="st55" d="M26.62,10.83h-.58v-.61c0-.12.06-.21.15-.21h.28c.09,0,.15.09.15.21v.61ZM26.12,10.76h.42v-.53c0-.07-.04-.14-.06-.14h-.28s-.06.06-.06.14v.53h-.01Z"/>
      <path class="st55" d="M33.27,10.3v-.07s1.2-.15,1.71-.54c.5-.4.83-1.35.83-1.35l.07.02s-.33.98-.86,1.38c-.52.41-1.71.56-1.76.56Z"/>
      <path class="st27" d="M38.19,2.54v.7h-.65v.27h-2l-.22-.27h-10.79v1.26h-.34s-.34.02-.34.02v-1.31h-11.64v.98s-.02,1-.02,1c-.11.01-.22.01-.33.02-.1,0-.2.01-.29.01v-2.03h-4.69c-1.45.12-2.53,1.67-2.74,2.58-.01.06-.02.14-.04.22-.01.04-.01.09-.02.14-.01.05-.01.1-.02.15,0,.02,0,.05-.01.09-.01.09-.02.17-.02.26-.01.11-.02.23-.04.36-.01.12-.02.25-.02.38-.01.1-.01.2-.02.3,0,.07-.01.16-.01.23-.01.15-.02.3-.02.45-.01.15-.02.31-.02.46-.04.68-.07,1.3-.09,1.69v.14h0v.05l-.26-.04-.83-.12v-1.9h.26l.18-3.39c0-.06.01-.12.01-.19s.01-.12.02-.19c.01-.05.01-.1.02-.15,0-.01,0-.04.01-.05.01-.05.02-.1.04-.16.01-.05.02-.09.04-.14.01-.06.04-.11.06-.17.01-.02.02-.06.04-.09.02-.09.06-.17.1-.25.01-.02.02-.06.04-.09.01-.02.01-.04.02-.06s.02-.06.05-.09c.04-.09.09-.16.13-.23.01-.02.04-.06.05-.09,0,0,0-.01.01-.01.04-.06.09-.12.14-.19.09-.11.17-.21.27-.31h.01s.04-.05.05-.06c.04-.04.07-.06.1-.1.01-.01.04-.04.06-.05.05-.04.1-.09.15-.12.05-.04.11-.09.16-.12.01-.01.02-.01.02-.02.06-.04.11-.07.17-.11.01-.01.02-.01.04-.01.05-.04.1-.06.15-.09.04-.01.06-.04.1-.05.05-.02.1-.05.15-.07.05-.02.11-.05.16-.07.05-.02.1-.04.16-.06.06-.02.12-.04.18-.06.06-.01.11-.04.17-.05.06-.01.12-.02.18-.04.05-.01.1-.01.15-.02.07-.01.16-.02.23-.02.05,0,.11-.01.16-.01h30.58c.48-.01.88.4.88.89Z"/>
      <path class="st20" d="M38.19,2.54v.7h-.18l-.21-.16v-.51c0-.2-.16-.36-.36-.36h-7.87l3.39-.36s-25.44,0-26.86.14c-1.33.14-2.22,1.19-2.33,1.32.69-1.01,1.84-1.67,3.14-1.67h30.39c.49-.01.9.4.9.89Z"/>
      <path class="st29" d="M13.42,3.2v.04h-1.23v.98s-.02,1-.02,1l-.05,4.61h-.28V3.2h1.58Z"/>
      <path class="st35" d="M11.84,3.2v6.63h-.29V3.24h-1.29v-.04h1.58Z"/>
      <path class="st34" d="M24.52,10.19h-.34V3.24h.34v6.95Z"/>
      <path class="st31" d="M24.18,3.24h-.34v6.96h.34V3.24Z"/>
      <path class="st44" d="M3.28,11.2c0,.06-.02.12-.05.17,0,.01-.01.02-.02.04-.01.16-.01.33,0,.49,0,.04.01.07,0,.11v.09s0,.06-.01.1c-.01.33-.02.66-.02.99,0,.09-.02.17-.06.23h-.45v-2.76s.07-.01.11-.01c.05,0,.1.01.16.02h.04s.07.02.11.05c.07.04.12.1.16.16.01.04.04.07.05.11.01.07.01.14,0,.2Z"/>
      <path class="st30" d="M28.06,3.24h-3.54v.98h-.69v-.98h-11.64v.98h-.65v-.98h-1.88l-.85-.67,19.4.32-.16.35Z"/>
      <path class="st32" d="M37.07,3.5h-1.53l-.22-.26h-.2l-.04-.06.09-.28h1.82l.09.61Z"/>
      <path class="st61" d="M11.54,3.24h-4.69c-1.45.12-2.53,1.67-2.74,2.58-.06.28-.12.89-.18,1.6,0,0-.18-2.72.1-3.28.27-.56.72-1.46,2.36-1.53,1.62-.07,5.1,0,5.1,0l.06.63Z"/>
      <path class="st33" d="M35.53,3.5l-.22-.26h-10.79v-.41l10.69.06.32.61Z"/>
      <path class="st37" d="M38.19,2.89v.36h-.65v.25h-.61c-.01-.09-.04-.19-.07-.25-.07-.12-.4-.36-.4-.36h1.74Z"/>
      <path class="st54" d="M3.84,8.84c-.04.68-.07,1.3-.09,1.69v.14h0s-1.08.01-1.08.01v-.4h.22v-1.43h.95Z"/>
      <path class="st55" d="M3.8,13.45h-1.18v-4.83h.26l.17-3.35c0-.06.01-.12.01-.19.01-.07.01-.14.02-.2v-.05s.02-.07.04-.1c0-.01.01-.04.01-.06.01-.04.01-.09.04-.15.01-.05.02-.09.04-.14.01-.06.04-.12.06-.17.01-.02.02-.06.04-.09.02-.07.06-.16.11-.26.01-.02.02-.06.04-.09.01-.02.01-.04.02-.06s.02-.06.05-.09c.04-.07.09-.16.14-.23.01-.02.02-.04.04-.06l.02-.04s0-.01.01-.01c.05-.06.1-.14.14-.19.09-.11.17-.22.27-.31l.02-.02s.04-.04.05-.05c.04-.04.07-.06.1-.1.01-.01.04-.04.06-.05.05-.04.09-.07.15-.12.05-.04.11-.09.16-.12h.01s.01-.02.01-.02c.06-.05.12-.09.17-.11.01-.01.02-.01.04-.02.04-.02.09-.05.15-.09h.01s.05-.04.07-.06c.05-.02.1-.05.15-.07.05-.02.11-.05.17-.07.05-.02.1-.04.16-.06.06-.02.12-.04.18-.06.06-.01.12-.04.17-.05.07-.01.12-.02.18-.04.05-.01.1-.01.15-.02.09-.01.16-.02.23-.02.06,0,.11-.01.16-.01h30.58c.52,0,.92.42.92.93v.74h-.65v.27h-2.05l-.22-.27h-10.74v6.96h-.76V3.26h-11.57l-.07,6.59h-.65V3.26h-4.64c-1.39.11-2.48,1.58-2.7,2.56-.01.06-.02.14-.04.21-.01.04-.01.09-.02.14s-.01.1-.02.15v.15c-.02.06-.02.12-.04.2v.11c-.02.09-.02.17-.04.26-.01.12-.02.25-.02.38v.04c-.01.09-.01.17-.01.26,0,.04,0,.09-.01.12,0,.04,0,.07-.01.11-.01.12-.01.26-.02.4v.05c-.01.15-.02.3-.02.45h0c-.04.53-.06,1.1-.09,1.71v.37h.38v.26l-.38,2.28ZM2.7,13.38h1.03l.36-2.21v-.17h-.39v-.32h0v-.14c.02-.61.06-1.17.09-1.69h0c.01-.16.01-.31.02-.46v-.05c.01-.14.01-.26.02-.4,0-.04,0-.07.01-.11,0-.04,0-.09.01-.12,0-.09.01-.19.02-.27v-.05c.01-.12.01-.23.02-.35.01-.09.01-.17.02-.26v-.11c.02-.07.02-.14.04-.2v-.15s.02-.11.04-.15c0-.05.01-.1.02-.14.01-.07.02-.15.04-.22.22-1,1.34-2.5,2.76-2.62h4.73v6.59h.5l.07-6.59h11.71v6.96h.61V3.19h10.85l.22.27h1.94v-.27h.65v-.67c0-.47-.38-.85-.85-.85H6.71c-.06,0-.11.01-.16.01-.07.01-.15.01-.23.02-.05.01-.1.01-.13.02-.05.01-.11.02-.17.04-.06.01-.11.02-.17.05-.06.01-.12.04-.18.06-.05.02-.1.04-.16.06-.06.02-.11.05-.16.07-.05.02-.1.05-.15.07-.02.01-.05.02-.07.04h-.01c-.06.04-.1.07-.15.1-.01.01-.02.01-.04.01-.05.04-.11.07-.17.11,0,0-.01.01-.02.01h-.01s-.11.09-.16.14c-.05.04-.1.07-.15.12-.02.01-.04.04-.06.05-.04.04-.07.06-.1.1-.01.01-.04.04-.05.05l-.02.02c-.09.09-.17.2-.26.31-.04.05-.09.11-.14.19h-.01s-.02.04-.02.04c-.01.02-.02.04-.04.06-.05.09-.1.16-.14.23-.01.02-.02.05-.05.09-.01.02-.02.04-.02.06-.01.02-.02.06-.04.09-.05.1-.07.17-.1.25-.01.02-.02.06-.04.09-.02.05-.04.11-.06.17-.01.05-.02.09-.04.14-.01.06-.02.11-.04.15-.01.02-.01.04-.01.05-.01.04-.01.07-.02.1v.05c-.02.06-.02.12-.04.19-.01.07-.01.12-.01.19l-.18,3.43h-.26v4.69h.05Z"/>
      <path class="st61" d="M23.83,3.2h-11.64l.05-.41h11.61l-.02.41Z"/>
      <path class="st43" d="M4.13,10.96v.15h-.93v1.13h-.27v-1.52h-.26v-.17h1.09v.14h0v.3h.37Z"/>
      <path class="st17" d="M37.23,8.84v7.83h-1.42l-3.06.2-.29.02-9.48.63s-6.36-.05-6.9-.06c-.54-.01-.92-1.78-2.92-2.31-2.01-.53-3.07,0-3.82.66-.74.66-1.42,1.47-1.66,1.72-.1.1-.5.26-.95.41l-3.97.09v-7.21h1.29v.2h3.79v-.45h7.66v.35l16.93-.2h.32l.34-.47h1.73c.55,0,1.01-.46,1.01-1.01v-.41h1.39v.02Z"/>
      <path class="st88" d="M3.08,17.03l.37-.42h4.76l-.26.8s-2.47.16-2.58.19c-.11.02-1.33.02-1.33.02"/>
      <path class="st76" d="M37.23,8.84v7.83h-1.31v-6.52c0-.72.59-1.31,1.31-1.31Z"/>
      <path class="st93" d="M7.85,11.03h-.29v6.31h.29v-6.31Z"/>
      <path class="st66" d="M15.94,10.93h-.42v6.41h.42v-6.41Z"/>
      <path class="st66" d="M20.21,10.87h-.42v6.41h.42v-6.41Z"/>
      <path class="st66" d="M20.2,11.08h-.3v6.1h.3v-6.1Z"/>
      <path class="st68" d="M28.33,10.78h-.39v6.39h.39v-6.39Z"/>
      <path class="st68" d="M32.8,10.72v6.45h-.34v-6.45h.34Z"/>
      <path class="st68" d="M32.75,16.33h-4.71v.33h4.71v-.33Z"/>
      <path class="st44" d="M3.59,17.29v-5.21l-.23-.3v-.54h.7v-.42h-1.11v1.11h.21v1.98h-.11v1.74l.16.16v1l-.12.21.29.26"/>
      <path class="st94" d="M3.88,19.09v.49h-.33l-.18-.87h.01c.11,0,.25.05.32.14.06.07.12.15.18.23Z"/>
      <path class="st55" d="M3.92,19.62h-.41l-.2-.92-.59-.59v-7.33h1.36v.2h3.72v-.45h7.74v.35l17.2-.2.34-.47h1.74c.53,0,.97-.43.97-.98v-.45h1.45v7.9h-1.46l-12.82.87c-.06,0-6.37-.05-6.9-.06-.21,0-.39-.25-.64-.58-.42-.56-1.03-1.4-2.3-1.73-2.08-.56-3.11.05-3.78.64-.56.51-1.11,1.11-1.42,1.47-.1.11-.17.19-.22.25-.12.14-.66.32-.97.42-.6.2-1.35.4-1.51.37h-.02c-.22,0-.99.37-1.3.53v.75ZM3.57,19.55h.27v-.72h.02c.11-.07,1.13-.59,1.39-.56.14.02.83-.16,1.47-.37.5-.16.85-.32.93-.41.05-.06.12-.14.22-.25.32-.36.86-.96,1.44-1.47.69-.61,1.73-1.22,3.84-.67,1.29.35,1.91,1.2,2.33,1.77.23.32.4.54.58.54.53,0,6.84.06,6.9.06l12.83-.85h1.39v-7.75h-1.3v.37c0,.58-.47,1.05-1.04,1.05h-1.71l-.34.47h-.34l-16.97.2v-.35h-7.59v.45h-3.87v-.2h-1.22v7.22l.58.58v.05s.18.83.18.83Z"/>
      <path class="st82" d="M11.59,21.27c1.93,0,3.5-1.58,3.5-3.52s-1.57-3.52-3.5-3.52-3.5,1.58-3.5,3.52,1.57,3.52,3.5,3.52Z"/>
      <path d="M11.59,21.33c-1.96,0-3.56-1.61-3.56-3.59s1.6-3.59,3.56-3.59,3.56,1.61,3.56,3.59-1.6,3.59-3.56,3.59ZM11.59,14.27c-1.9,0-3.45,1.56-3.45,3.47s1.55,3.47,3.45,3.47,3.45-1.56,3.45-3.47-1.55-3.47-3.45-3.47Z"/>
      <path class="st36" d="M11.59,19.9c-1.18,0-2.15-.96-2.15-2.16s.96-2.16,2.15-2.16,2.15.96,2.15,2.16-.96,2.16-2.15,2.16Z"/>
      <path class="st2" d="M11.59,19.92c-1.19,0-2.16-.98-2.16-2.18s.97-2.18,2.16-2.18,2.16.98,2.16,2.18-.97,2.18-2.16,2.18ZM11.59,15.61c-1.17,0-2.12.96-2.12,2.14s.96,2.14,2.12,2.14,2.12-.96,2.12-2.14-.95-2.14-2.12-2.14Z"/>
      <path class="st79" d="M11.59,19.45c-.93,0-1.69-.77-1.69-1.71s.76-1.71,1.69-1.71,1.69.77,1.69,1.71-.76,1.71-1.69,1.71Z"/>
      <path class="st2" d="M11.59,19.46c-.95,0-1.71-.77-1.71-1.72s.76-1.72,1.71-1.72,1.71.77,1.71,1.72c.01.95-.76,1.72-1.71,1.72ZM11.59,16.06c-.92,0-1.67.75-1.67,1.68s.75,1.68,1.67,1.68,1.67-.75,1.67-1.68-.75-1.68-1.67-1.68Z"/>
      <path class="st18" d="M11.59,18.68c-.52,0-.93-.42-.93-.94s.42-.94.93-.94.93.42.93.94c.01.52-.42.94-.93.94Z"/>
      <path d="M11.59,18.71c-.53,0-.96-.43-.96-.96s.43-.96.96-.96.96.43.96.96-.43.96-.96.96ZM11.59,16.82c-.5,0-.92.41-.92.93s.41.93.92.93.92-.41.92-.93-.41-.93-.92-.93Z"/>
      <path class="st57" d="M11.59,18.23c-.27,0-.48-.22-.48-.48s.22-.48.48-.48.48.22.48.48c.01.27-.21.48-.48.48Z"/>
      <path class="st4" d="M11.71,16.26h-.11v.37h.11v-.37Z"/>
      <path class="st4" d="M11.71,18.93h-.11v.37h.11v-.37Z"/>
      <path class="st4" d="M12.29,16.39l-.17.33.1.05.17-.33-.1-.05Z"/>
      <path class="st4" d="M11.11,18.78l-.17.33.1.05.17-.33-.1-.05Z"/>
      <path class="st4" d="M12.56,17.06l-.07-.09.28-.25.07.09-.28.25Z"/>
      <path class="st4" d="M10.56,18.82l-.07-.07.28-.25.07.09-.28.23Z"/>
      <path class="st4" d="M13.08,17.22l-.35.12.04.1.35-.12-.04-.1Z"/>
      <path class="st4" d="M10.57,18.11l-.35.12.04.1.35-.12-.04-.1Z"/>
      <path class="st4" d="M12.81,17.72v.11s.37,0,.37,0v-.11s-.37,0-.37,0Z"/>
      <path class="st4" d="M10.15,17.71v.11s.37,0,.37,0v-.11s-.37,0-.37,0Z"/>
      <path class="st4" d="M12.74,18.17l-.04.1.34.14.04-.1-.34-.14Z"/>
      <path class="st4" d="M10.3,17.12l-.04.1.34.14.04-.1-.34-.14Z"/>
      <path class="st4" d="M12.67,18.91l-.25-.26.07-.07.26.26-.09.07Z"/>
      <path class="st4" d="M10.83,16.99l-.26-.26.07-.09.26.26-.07.09Z"/>
      <path class="st4" d="M12.17,18.82l-.1.04.14.34.1-.04-.14-.34Z"/>
      <path class="st4" d="M11.12,16.35l-.1.04.14.34.1-.04-.14-.34Z"/>
      <path class="st74" d="M10.87,17.72c.05,0,.1-.04.1-.1s-.04-.1-.1-.1-.1.04-.1.1.04.1.1.1Z"/>
      <path class="st74" d="M12.24,17.72c.05,0,.1-.04.1-.1s-.04-.1-.1-.1-.1.04-.1.1.04.1.1.1Z"/>
      <path class="st74" d="M12.05,18.45c.05,0,.1-.04.1-.1s-.04-.1-.1-.1-.1.04-.1.1.04.1.1.1Z"/>
      <path class="st74" d="M11.15,18.45c.05,0,.1-.04.1-.1s-.04-.1-.1-.1-.1.04-.1.1.04.1.1.1Z"/>
      <path class="st74" d="M11.59,17.15c.05,0,.1-.04.1-.1s-.04-.1-.1-.1-.1.04-.1.1.04.1.1.1Z"/>
      <path class="st90" d="M35.8,16.67c-.11,1.19-1.25,1.94-1.88,2.25-.05.02-.09.04-.14.06-.2.09-.42.12-.64.12H15.42c-.54-2.93-3.02-4.2-5.14-3.2-2.11,1-2.04,3.7-2.08,3.7-.33-.16-.49-.38-.49-.38h-3.83l-1.08-1.04v-.28h.28v-.87s4.56.02,4.65,0c.1-.02.33-.66.33-1.01.01-.28.48-2.66,3.62-2.66,1.63,0,2.61.77,3.18,1.56.63.87.77,1.76.77,1.76h20.16Z"/>
      <path class="st77" d="M7.69,19.22h-3.79l-1.08-1.04v-.28h.28v-.48c.32.31,1.07,1.01,1.07,1.01h3.49l.04.79Z"/>
      <path class="st15" d="M4.26,17.71h-.52c-.09,0-.16-.07-.16-.16v-.15c0-.09.07-.16.16-.16h.52c.09,0,.16.07.16.16v.15c0,.09-.07.16-.16.16Z"/>
      <path class="st15" d="M24.52,17.52h-.52c-.09,0-.16-.07-.16-.16v-.15c0-.09.07-.16.16-.16h.52c.09,0,.16.07.16.16v.15c0,.09-.07.16-.16.16Z"/>
      <path class="st40" d="M7.69,19.22h-3.35c.1-.04.21-.07.27-.14.16-.14.14-.35.49-.42.37-.07.74-.06.82-.02.09.04.05.21.09.21s.16-.01.23-.02c.07-.02.06-.2.2-.23.14-.05.74-.09,1.01.01.17.06.22.38.25.62Z"/>
      <path class="st19" d="M35.8,16.67c-.11,1.19-1.25,1.94-1.88,2.25-.05.02-.09.04-.14.06-.2.09-.42.12-.64.12H15.94c0-.21-.03-.46-.11-.63,0,0,15.54-.04,16.94-.11.07,0,.14-.01.2-.02.1-.01.2-.05.29-.07.87-.3,1.51-1.2,1.77-1.6h.77Z"/>
      <path class="st75" d="M15.8,19.12h-.07c-.03-.47-.1-1.38-.36-2.61-.16-.75-.33-1.25-.48-1.58.63.87.77,1.76.77,1.76h.11c.16,1.11.1,1.98.03,2.44Z"/>
      <path class="st1" d="M8.26,16.16c.11-.74.55-1.45,1.18-1.92.64-.47,1.44-.68,2.21-.69.77-.01,1.57.19,2.22.63.64.46,1.11,1.15,1.2,1.9-.17-.33-.38-.62-.64-.88-.25-.25-.52-.46-.82-.62-.6-.31-1.28-.45-1.96-.43-.69.01-1.36.15-1.95.48-.29.16-.58.38-.81.64-.23.26-.44.56-.63.88Z"/>
      <path class="st84" d="M11.78,14.11c.43,0,.77-.12.77-.26s-.35-.26-.77-.26-.77.12-.77.26.35.26.77.26Z"/>
      <path class="st95" d="M33.79,18.99c-.2.09-.42.12-.64.12h-.18v-1.04h.25s.01.09.05.2c.02.06.06.14.11.2.15.17.17.11.28.16.06.01.1.19.14.36Z"/>
      <path class="st55" d="M8.2,19.64c-.31-.14-.47-.32-.5-.38h-3.82l-1.1-1.06v-.33h.28v-.87h.04c1.56.01,4.54.01,4.65,0,.07-.02.29-.62.31-.98,0-.02.28-2.7,3.66-2.7,1.72,0,2.69.85,3.22,1.58.55.77.75,1.57.77,1.74h20.15v.04c-.11,1.2-1.24,1.94-1.9,2.29-.05.02-.09.05-.14.06-.2.09-.42.12-.65.12H15.39v-.04c-.27-1.43-1.04-2.58-2.12-3.14-.92-.48-2-.49-2.96-.04-.85.4-1.88,1.34-2.04,3.56-.01.12-.02.14-.06.14ZM3.91,19.18h3.84s.15.21.43.36v-.05c.16-2.25,1.22-3.22,2.07-3.62.98-.46,2.09-.45,3.03.04,1.11.57,1.89,1.72,2.16,3.17h17.71c.22,0,.43-.04.63-.12.05-.01.09-.04.14-.06.64-.33,1.73-1.05,1.85-2.19H15.63v-.04s-.16-.89-.77-1.74c-.74-1.03-1.8-1.55-3.16-1.55-3.32,0-3.59,2.6-3.59,2.62-.01.33-.23,1.03-.37,1.05-.1.02-4.01,0-4.63,0v.87h-.28v.22l1.07,1.05Z"/>
      <path class="st2" d="M42.52,18.26c.16,0,.28-.13.28-.28s-.13-.28-.28-.28-.28.13-.28.28.13.28.28.28Z"/>
      <path d="M42.52,18.3c-.17,0-.32-.15-.32-.32s.15-.32.32-.32.32.15.32.32-.13.32-.32.32ZM42.52,17.73c-.13,0-.25.11-.25.25s.11.25.25.25.25-.11.25-.25-.11-.25-.25-.25Z"/>
    </g>
  </g>
</svg>