<svg width="162" height="33" viewBox="0 0 162 33" fill="none" xmlns="http://www.w3.org/2000/svg">
<g clip-path="url(#clip0_136_42)">
<path d="M0 0.812988H31.0262V32.011H0V0.812988Z" fill="#FF690F"/>
<path d="M9.56445 8.61865H13.3356V24.2176H9.56445V8.61865Z" fill="white"/>
<path d="M21.4619 24.2046H17.3018L13.012 16.4116L17.3018 8.61865H21.4619L17.1462 16.4116L21.4619 24.2046Z" fill="white"/>
<path d="M32.7498 0.812744H63.776V32.0107H32.7498V0.812744Z" fill="#FF690F"/>
<path d="M45.451 21.9631L44.7769 24.2308H40.7593L45.8656 8.59253H50.6606L55.7279 24.2308H51.6197L50.9459 21.989L45.451 21.9631ZM48.1983 13.0755L46.3838 18.9007H50.0126L48.1983 13.0755Z" fill="white"/>
<path d="M65.4868 0.812744H96.5131V32.0107H65.4868V0.812744Z" fill="#FF690F"/>
<path d="M82.9437 24.2308H79.1468V17.337L74.0535 8.59253H78.5378L81.0519 13.3882L83.5272 8.59278H87.9467L82.944 17.337L82.9437 24.2308Z" fill="white"/>
<path d="M98.2368 0.812744H129.263V32.0107H98.2368V0.812744Z" fill="#FF690F"/>
<path d="M110.938 21.9631L110.264 24.2308H106.246L111.352 8.59253H116.147L121.215 24.2308H117.107L116.433 21.989L110.938 21.9631ZM113.685 13.0755L111.871 18.9007H115.499L113.685 13.0755Z" fill="white"/>
<path d="M130.974 0.812744H162V32.0107H130.974V0.812744Z" fill="#FF690F"/>
<path d="M140.538 8.61865H144.31V24.2176H140.538V8.61865Z" fill="white"/>
<path d="M152.435 24.2046H148.275L143.986 16.4116L148.275 8.61865H152.435L148.12 16.4116L152.435 24.2046Z" fill="white"/>
</g>
<defs>
<clipPath id="clip0_136_42">
<rect width="162" height="32" fill="white" transform="translate(0 0.812744)"/>
</clipPath>
</defs>
</svg>
