<svg width="42" height="43" viewBox="0 0 42 43" fill="none" xmlns="http://www.w3.org/2000/svg">
<g clip-path="url(#clip0_134_5320)">
<path d="M21 42.8127C32.598 42.8127 42 33.4107 42 21.8127C42 10.2148 32.598 0.812744 21 0.812744C9.40202 0.812744 0 10.2148 0 21.8127C0 33.4107 9.40202 42.8127 21 42.8127Z" fill="#34E0A1"/>
<path d="M33.5481 18.3466L36 15.7152H30.5626C27.8405 13.881 24.553 12.8127 20.9977 12.8127C17.4469 12.8127 14.1686 13.8833 11.451 15.7152H6L8.45195 18.3466C6.94902 19.6992 6.00684 21.6476 6.00684 23.811C6.00684 27.8936 9.36241 31.2036 13.5012 31.2036C15.4673 31.2036 17.2585 30.4556 18.5958 29.2328L20.9978 31.8127L23.3998 29.2351C24.737 30.4579 26.526 31.2036 28.4921 31.2036C32.6309 31.2036 35.9909 27.8936 35.9909 23.811C35.9932 21.6454 35.051 19.697 33.5481 18.3466ZM13.5034 28.814C10.7018 28.814 8.43156 26.5746 8.43156 23.811C8.43156 21.0474 10.7019 18.8079 13.5034 18.8079C16.305 18.8079 18.5753 21.0474 18.5753 23.811C18.5753 26.5746 16.305 28.814 13.5034 28.814ZM21 23.6654C21 20.3733 18.5731 17.5471 15.3696 16.34C17.1019 15.6255 19.0021 15.2292 20.9977 15.2292C22.9933 15.2292 24.8958 15.6255 26.6281 16.34C23.427 17.5493 21 20.3734 21 23.6654ZM28.4944 28.814C25.6928 28.814 23.4224 26.5746 23.4224 23.811C23.4224 21.0474 25.6928 18.8079 28.4944 18.8079C31.296 18.8079 33.5662 21.0474 33.5662 23.811C33.5662 26.5746 31.2959 28.814 28.4944 28.814ZM28.4944 21.1863C27.0254 21.1863 25.8358 22.3598 25.8358 23.8088C25.8358 25.2577 27.0254 26.4312 28.4944 26.4312C29.9632 26.4312 31.1529 25.2577 31.1529 23.8088C31.1528 22.362 29.9632 21.1863 28.4944 21.1863ZM16.1619 23.811C16.1619 25.2599 14.9723 26.4335 13.5034 26.4335C12.0346 26.4335 10.8449 25.2599 10.8449 23.811C10.8449 22.362 12.0346 21.1885 13.5034 21.1885C14.9723 21.1863 16.1619 22.362 16.1619 23.811Z" fill="black"/>
</g>
<defs>
<clipPath id="clip0_134_5320">
<rect width="42" height="42" fill="white" transform="translate(0 0.812744)"/>
</clipPath>
</defs>
</svg>
